<svg data-v-423bf9ae="" xmlns="http://www.w3.org/2000/svg" viewBox="0 0 359 90" class="iconLeft"><!----><!----><!----><g data-v-423bf9ae="" id="56445066-8f24-4cb2-8e62-3fb840e2d90b" fill="black" transform="matrix(4.769475386636096,0,0,4.769475386636096,78.7122446622875,-1.645467952752341)"><path d="M3.58 13.09L3.58 13.72L0.27 13.72L0.27 13.09L1.44 12.75L1.69 6.08L0.52 5.75L0.52 5.12L3.43 5.12L5.61 11.68L7.77 5.12L10.79 5.12L10.79 5.75L9.60 6.08L9.90 12.75L11.09 13.09L11.09 13.72L6.94 13.72L6.94 13.09L8.12 12.75L7.91 7.63L5.84 13.72L4.80 13.86L2.59 7.67L2.39 12.75L3.58 13.09ZM14.57 6.83L14.57 7.39L13.92 7.77L15.26 11.28L16.44 7.80L15.54 7.60L15.54 6.83L18.58 6.83L18.58 7.56L17.70 7.80L15.71 13.24L15.71 13.24Q15.19 14.66 14.58 15.37L14.58 15.37L14.58 15.37Q13.97 16.07 13.08 16.07L13.08 16.07L13.08 16.07Q12.33 16.07 11.42 15.67L11.42 15.67L11.54 15.02L12.45 15.02L12.45 15.02Q13.66 15.02 14.31 13.36L14.31 13.36L11.91 7.77L11.21 7.39L11.21 6.83L14.57 6.83ZM22.89 5.12L22.89 5.12Q23.69 5.12 24.39 5.41L24.39 5.41L24.39 5.41Q25.09 5.70 25.52 6.26L25.52 6.26L25.52 6.26Q25.94 6.82 25.94 7.60L25.94 7.60L25.94 7.60Q25.94 8.53 25.47 9.14L25.47 9.14L25.47 9.14Q25.00 9.74 24.27 10.03L24.27 10.03L24.27 10.03Q23.53 10.32 22.72 10.32L22.72 10.32L22.72 10.32Q22.61 10.32 22.33 10.30L22.33 10.30L22.33 10.30Q22.05 10.29 21.97 10.26L21.97 10.26L21.97 12.75L23.45 13.08L23.45 13.72L18.90 13.72L18.90 13.09L20.08 12.75L20.08 6.08L18.89 5.75L18.89 5.12L22.89 5.12ZM21.97 9.58L21.97 9.58Q22.11 9.62 22.39 9.62L22.39 9.62L22.39 9.62Q23.17 9.62 23.60 9.08L23.60 9.08L23.60 9.08Q24.02 8.54 24.02 7.70L24.02 7.70L24.02 7.70Q24.02 6.93 23.67 6.47L23.67 6.47L23.67 6.47Q23.32 6.01 22.74 6.01L22.74 6.01L22.74 6.01Q22.26 6.01 21.97 6.08L21.97 6.08L21.97 9.58ZM29.86 6.69L29.86 6.69Q31.65 6.69 32.50 7.69L32.50 7.69L32.50 7.69Q33.35 8.68 33.35 10.30L33.35 10.30L33.35 10.30Q33.35 11.87 32.49 12.87L32.49 12.87L32.49 12.87Q31.64 13.86 29.86 13.86L29.86 13.86L29.86 13.86Q28.13 13.86 27.28 12.87L27.28 12.87L27.28 12.87Q26.43 11.87 26.43 10.30L26.43 10.30L26.43 10.30Q26.43 8.68 27.27 7.69L27.27 7.69L27.27 7.69Q28.10 6.69 29.86 6.69L29.86 6.69ZM31.32 10.28L31.32 10.28Q31.32 9.00 31.00 8.32L31.00 8.32L31.00 8.32Q30.67 7.63 29.83 7.63L29.83 7.63L29.83 7.63Q29.05 7.63 28.76 8.32L28.76 8.32L28.76 8.32Q28.46 9.00 28.46 10.28L28.46 10.28L28.46 10.28Q28.46 11.54 28.78 12.22L28.78 12.22L28.78 12.22Q29.09 12.91 29.92 12.91L29.92 12.91L29.92 12.91Q30.73 12.91 31.02 12.23L31.02 12.23L31.02 12.23Q31.32 11.55 31.32 10.28L31.32 10.28ZM37.94 7.88L37.94 7.88Q37.39 7.88 37.03 8.11L37.03 8.11L37.03 12.74L38.65 13.02L38.65 13.72L34.05 13.72L34.05 13.02L35.14 12.74L35.14 8.06L34.05 7.91L34.05 7.24L36.40 6.69L37.03 6.69L37.03 7.34L37.03 7.34Q37.49 7.03 38.07 6.84L38.07 6.84L38.07 6.84Q38.64 6.65 39.12 6.65L39.12 6.65L39.12 6.65Q39.44 6.65 39.52 6.66L39.52 6.66L39.26 9.17L38.23 9.17L37.94 7.88ZM40.15 5.12L46.63 5.12L46.63 7.17L45.85 7.17L45.54 6.08L43.23 6.08L43.23 9.24L44.72 9.24L44.95 8.32L45.70 8.32L45.70 10.99L44.95 10.99L44.69 10.02L43.23 10.02L43.23 12.67L44.72 13.02L44.72 13.72L40.17 13.72L40.17 13.09L41.34 12.75L41.34 6.08L40.15 5.75L40.15 5.12ZM50.62 6.69L50.62 6.69Q52.42 6.69 53.26 7.69L53.26 7.69L53.26 7.69Q54.11 8.68 54.11 10.30L54.11 10.30L54.11 10.30Q54.11 11.87 53.26 12.87L53.26 12.87L53.26 12.87Q52.40 13.86 50.62 13.86L50.62 13.86L50.62 13.86Q48.89 13.86 48.04 12.87L48.04 12.87L48.04 12.87Q47.19 11.87 47.19 10.30L47.19 10.30L47.19 10.30Q47.19 8.68 48.03 7.69L48.03 7.69L48.03 7.69Q48.86 6.69 50.62 6.69L50.62 6.69ZM52.08 10.28L52.08 10.28Q52.08 9.00 51.76 8.32L51.76 8.32L51.76 8.32Q51.44 7.63 50.60 7.63L50.60 7.63L50.60 7.63Q49.81 7.63 49.52 8.32L49.52 8.32L49.52 8.32Q49.22 9.00 49.22 10.28L49.22 10.28L49.22 10.28Q49.22 11.54 49.54 12.22L49.54 12.22L49.54 12.22Q49.85 12.91 50.68 12.91L50.68 12.91L50.68 12.91Q51.49 12.91 51.79 12.23L51.79 12.23L51.79 12.23Q52.08 11.55 52.08 10.28L52.08 10.28ZM58.74 13.72L54.67 13.72L54.67 13.02L55.76 12.74L55.76 4.86L54.67 4.70L54.67 4.03L57.04 3.49L57.65 3.49L57.65 12.74L58.74 13.02L58.74 13.72Z"></path></g><!----><g data-v-423bf9ae="" id="8c4d5719-feff-4745-960e-4fb21bbf6335" transform="matrix(1.25,0,0,1.25,-10,-10)" stroke="none" fill="black"><path d="M56 14a6 6 0 0 0-6-6H8.188C8.084 8 8 8.448 8 9v70a1 1 0 0 0 1 1h41a6 6 0 0 0 6-6v-3.733l-.014.019c.004-.095.014-.189.014-.286V14zm-6-4c2.206 0 4 1.794 4 4v56c0 2.206-1.794 4-4 4h-2V10h2zm-6 64H20V10h24v64zM10 10h8v64h-8V10zm40 68H10v-2h40a5.968 5.968 0 0 0 3.948-1.49C53.695 76.473 52.031 78 50 78z"></path></g><!----></svg>